<?xml version="1.0" encoding="UTF-8" standalone="no"?>
<!-- Created with Inkscape (http://www.inkscape.org/) -->

<svg
   version="1.1"
   id="svg2"
   xml:space="preserve"
   width="806.5979"
   height="274.14435"
   viewBox="0 0 806.5979 274.14435"
   sodipodi:docname="calibration_sensor.svg"
   inkscape:version="1.1.2 (0a00cf5339, 2022-02-04)"
   xmlns:inkscape="http://www.inkscape.org/namespaces/inkscape"
   xmlns:sodipodi="http://sodipodi.sourceforge.net/DTD/sodipodi-0.dtd"
   xmlns="http://www.w3.org/2000/svg"
   xmlns:svg="http://www.w3.org/2000/svg"><defs
     id="defs6"><rect
       x="352.12064"
       y="114.28812"
       width="171.09973"
       height="50.443134"
       id="rect8013" /><inkscape:path-effect
       effect="bspline"
       id="path-effect6521"
       is_visible="true"
       lpeversion="1"
       weight="33.333333"
       steps="2"
       helper_size="0"
       apply_no_weight="true"
       apply_with_weight="true"
       only_selected="false" /><inkscape:path-effect
       effect="bspline"
       id="path-effect6386"
       is_visible="true"
       lpeversion="1"
       weight="33.333333"
       steps="2"
       helper_size="0"
       apply_no_weight="true"
       apply_with_weight="true"
       only_selected="false" /><rect
       x="96.738701"
       y="35.655426"
       width="157.7834"
       height="91.385719"
       id="rect4267" /></defs><sodipodi:namedview
     id="namedview4"
     pagecolor="#ffffff"
     bordercolor="#666666"
     borderopacity="1.0"
     inkscape:pageshadow="2"
     inkscape:pageopacity="0.0"
     inkscape:pagecheckerboard="0"
     showgrid="false"
     inkscape:zoom="1.0303181"
     inkscape:cx="443.06707"
     inkscape:cy="21.837917"
     inkscape:window-width="1850"
     inkscape:window-height="1016"
     inkscape:window-x="70"
     inkscape:window-y="27"
     inkscape:window-maximized="1"
     inkscape:current-layer="g8"
     fit-margin-top="0"
     fit-margin-left="0"
     fit-margin-right="0"
     fit-margin-bottom="0" /><g
     id="g8"
     inkscape:groupmode="layer"
     inkscape:label="calibration_sensor"
     transform="matrix(1.3333333,0,0,-1.3333333,62.654845,274.00794)"><g
       id="g10"
       transform="matrix(0.125,0,0,-0.125,0,194)"><g
         id="g12"
         transform="matrix(5.938144,0,0,5.9381447,-375.92908,-92.047684)"><path
           d="M 0,0 H 815 V 277 H 0 Z"
           style="fill:#ffffff;fill-opacity:1;fill-rule:nonzero;stroke:none"
           id="path14" /></g><g
         id="g16"
         transform="matrix(5.938144,0,0,5.9381447,-375.92908,-92.047684)"><path
           d="M 106,235 H 738 V 21 H 106 Z"
           style="fill:#ffffff;fill-opacity:1;fill-rule:nonzero;stroke:none"
           id="path18" /></g><g
         id="g20"
         transform="matrix(5.938144,0,0,5.9381447,-375.92908,-92.047684)"><path
           d="M 106,235 H 738"
           style="fill:none;stroke:#262626;stroke-width:0.673611;stroke-linecap:square;stroke-linejoin:round;stroke-miterlimit:10;stroke-dasharray:none;stroke-opacity:1"
           id="path22" /></g><g
         id="g24"
         transform="matrix(5.938144,0,0,5.9381447,-375.92908,-92.047684)"><path
           d="M 106,21 H 738"
           style="fill:none;stroke:#262626;stroke-width:0.673611;stroke-linecap:square;stroke-linejoin:round;stroke-miterlimit:10;stroke-dasharray:none;stroke-opacity:1"
           id="path26" /></g><g
         id="g28"
         transform="matrix(5.938144,0,0,5.9381447,-375.92908,-92.047684)"><path
           d="m 106,235 v -6.32001"
           style="fill:none;stroke:#262626;stroke-width:0.673611;stroke-linecap:square;stroke-linejoin:round;stroke-miterlimit:10;stroke-dasharray:none;stroke-opacity:1"
           id="path30" /></g><g
         id="g32"
         transform="matrix(5.938144,0,0,5.9381447,-375.92908,-92.047684)"><path
           d="m 223.03703,235 v -6.32001"
           style="fill:none;stroke:#262626;stroke-width:0.673611;stroke-linecap:square;stroke-linejoin:round;stroke-miterlimit:10;stroke-dasharray:none;stroke-opacity:1"
           id="path34" /></g><g
         id="g36"
         transform="matrix(5.938144,0,0,5.9381447,-375.92908,-92.047684)"><path
           d="m 340.07407,235 v -6.32001"
           style="fill:none;stroke:#262626;stroke-width:0.673611;stroke-linecap:square;stroke-linejoin:round;stroke-miterlimit:10;stroke-dasharray:none;stroke-opacity:1"
           id="path38" /></g><g
         id="g40"
         transform="matrix(5.938144,0,0,5.9381447,-375.92908,-92.047684)"><path
           d="m 457.11111,235 v -6.32001"
           style="fill:none;stroke:#262626;stroke-width:0.673611;stroke-linecap:square;stroke-linejoin:round;stroke-miterlimit:10;stroke-dasharray:none;stroke-opacity:1"
           id="path42" /></g><g
         id="g44"
         transform="matrix(5.938144,0,0,5.9381447,-375.92908,-92.047684)"><path
           d="m 574.14813,235 v -6.32001"
           style="fill:none;stroke:#262626;stroke-width:0.673611;stroke-linecap:square;stroke-linejoin:round;stroke-miterlimit:10;stroke-dasharray:none;stroke-opacity:1"
           id="path46" /></g><g
         id="g48"
         transform="matrix(5.938144,0,0,5.9381447,-375.92908,-92.047684)"><path
           d="m 691.18518,235 v -6.32001"
           style="fill:none;stroke:#262626;stroke-width:0.673611;stroke-linecap:square;stroke-linejoin:round;stroke-miterlimit:10;stroke-dasharray:none;stroke-opacity:1"
           id="path50" /></g><g
         id="g52"
         transform="matrix(5.938144,0,0,5.9381447,-375.92908,-92.047684)"><path
           d="m 106,21 v 6.320005"
           style="fill:none;stroke:#262626;stroke-width:0.673611;stroke-linecap:square;stroke-linejoin:round;stroke-miterlimit:10;stroke-dasharray:none;stroke-opacity:1"
           id="path54" /></g><g
         id="g56"
         transform="matrix(5.938144,0,0,5.9381447,-375.92908,-92.047684)"><path
           d="m 223.03703,21 v 6.320005"
           style="fill:none;stroke:#262626;stroke-width:0.673611;stroke-linecap:square;stroke-linejoin:round;stroke-miterlimit:10;stroke-dasharray:none;stroke-opacity:1"
           id="path58" /></g><g
         id="g60"
         transform="matrix(5.938144,0,0,5.9381447,-375.92908,-92.047684)"><path
           d="m 340.07407,21 v 6.320005"
           style="fill:none;stroke:#262626;stroke-width:0.673611;stroke-linecap:square;stroke-linejoin:round;stroke-miterlimit:10;stroke-dasharray:none;stroke-opacity:1"
           id="path62" /></g><g
         id="g64"
         transform="matrix(5.938144,0,0,5.9381447,-375.92908,-92.047684)"><path
           d="m 457.11111,21 v 6.320005"
           style="fill:none;stroke:#262626;stroke-width:0.673611;stroke-linecap:square;stroke-linejoin:round;stroke-miterlimit:10;stroke-dasharray:none;stroke-opacity:1"
           id="path66" /></g><g
         id="g68"
         transform="matrix(5.938144,0,0,5.9381447,-375.92908,-92.047684)"><path
           d="m 574.14813,21 v 6.320005"
           style="fill:none;stroke:#262626;stroke-width:0.673611;stroke-linecap:square;stroke-linejoin:round;stroke-miterlimit:10;stroke-dasharray:none;stroke-opacity:1"
           id="path70" /></g><g
         id="g72"
         transform="matrix(5.938144,0,0,5.9381447,-375.92908,-92.047684)"><path
           d="m 691.18518,21 v 6.320005"
           style="fill:none;stroke:#262626;stroke-width:0.673611;stroke-linecap:square;stroke-linejoin:round;stroke-miterlimit:10;stroke-dasharray:none;stroke-opacity:1"
           id="path74" /></g><g
         id="g76"><g
           id="g78"
           transform="matrix(5.938144,0,0,5.9381447,253.51419,1335.4163)"><text
             transform="translate(-11,13)"
             style="font-variant:normal;font-weight:normal;font-size:13.472px;font-family:Helvetica;-inkscape-font-specification:Helvetica;writing-mode:lr-tb;fill:#262626;fill-opacity:1;fill-rule:nonzero;stroke:none"
             id="text82"><tspan
               x="0 7.4904318 11.235648"
               y="0"
               sodipodi:role="line"
               id="tspan80">0.5</tspan></text></g></g><g
         id="g84"><g
           id="g86"
           transform="matrix(5.938144,0,0,5.9381447,948.49695,1335.4163)"><text
             transform="translate(-4.5,13)"
             style="font-variant:normal;font-weight:normal;font-size:13.472px;font-family:Helvetica;-inkscape-font-specification:Helvetica;writing-mode:lr-tb;fill:#262626;fill-opacity:1;fill-rule:nonzero;stroke:none"
             id="text90"><tspan
               x="0"
               y="0"
               id="tspan88">1</tspan></text></g></g><g
         id="g92"><g
           id="g94"
           transform="matrix(5.938144,0,0,5.9381447,1643.4797,1335.4163)"><text
             transform="translate(-11,13)"
             style="font-variant:normal;font-weight:normal;font-size:13.472px;font-family:Helvetica;-inkscape-font-specification:Helvetica;writing-mode:lr-tb;fill:#262626;fill-opacity:1;fill-rule:nonzero;stroke:none"
             id="text98"><tspan
               x="0 7.4904318 11.235648"
               y="0"
               sodipodi:role="line"
               id="tspan96">1.5</tspan></text></g></g><g
         id="g100"><g
           id="g102"
           transform="matrix(5.938144,0,0,5.9381447,2338.4626,1335.4163)"><text
             transform="translate(-4.5,13)"
             style="font-variant:normal;font-weight:normal;font-size:13.472px;font-family:Helvetica;-inkscape-font-specification:Helvetica;writing-mode:lr-tb;fill:#262626;fill-opacity:1;fill-rule:nonzero;stroke:none"
             id="text106"><tspan
               x="0"
               y="0"
               id="tspan104">2</tspan></text></g></g><g
         id="g108"><g
           id="g110"
           transform="matrix(5.938144,0,0,5.9381447,3033.4452,1335.4163)"><text
             transform="translate(-11,13)"
             style="font-variant:normal;font-weight:normal;font-size:13.472px;font-family:Helvetica;-inkscape-font-specification:Helvetica;writing-mode:lr-tb;fill:#262626;fill-opacity:1;fill-rule:nonzero;stroke:none"
             id="text114"><tspan
               x="0 7.4904318 11.235648"
               y="0"
               sodipodi:role="line"
               id="tspan112">2.5</tspan></text></g></g><g
         id="g116"><g
           id="g118"
           transform="matrix(5.938144,0,0,5.9381447,3728.4281,1335.4163)"><text
             transform="translate(-4.5,13)"
             style="font-variant:normal;font-weight:normal;font-size:13.472px;font-family:Helvetica;-inkscape-font-specification:Helvetica;writing-mode:lr-tb;fill:#262626;fill-opacity:1;fill-rule:nonzero;stroke:none"
             id="text122"><tspan
               x="0"
               y="0"
               id="tspan120">3</tspan></text></g></g><g
         id="g124"><g
           id="g126"
           transform="matrix(5.938144,0,0,5.9381447,2129.9695,1444.3648)"><text
             transform="translate(-41,14)"
             style="font-variant:normal;font-weight:normal;font-size:14.819px;font-family:Helvetica;-inkscape-font-specification:Helvetica;writing-mode:lr-tb;fill:#262626;fill-opacity:1;fill-rule:nonzero;stroke:none"
             id="text130"><tspan
               x="0 7.4095001 15.648864 18.938683 23.058365 31.297728 39.53709 47.776455 51.896137 56.830864 66.715141"
               y="0"
               sodipodi:role="line"
               id="tspan128">voltage (V)</tspan></text></g></g><g
         id="g132"
         transform="matrix(5.938144,0,0,5.9381447,-375.92908,-92.047684)"><path
           d="M 106,235 V 21"
           style="fill:none;stroke:#262626;stroke-width:0.673611;stroke-linecap:square;stroke-linejoin:round;stroke-miterlimit:10;stroke-dasharray:none;stroke-opacity:1"
           id="path134" /></g><g
         id="g136"
         transform="matrix(5.938144,0,0,5.9381447,-375.92908,-92.047684)"><path
           d="M 738,235 V 21"
           style="fill:none;stroke:#262626;stroke-width:0.673611;stroke-linecap:square;stroke-linejoin:round;stroke-miterlimit:10;stroke-dasharray:none;stroke-opacity:1"
           id="path138" /></g><g
         id="g140"
         transform="matrix(5.938144,0,0,5.9381447,-375.92908,-92.047684)"><path
           d="m 106,235 h 6.32"
           style="fill:none;stroke:#262626;stroke-width:0.673611;stroke-linecap:square;stroke-linejoin:round;stroke-miterlimit:10;stroke-dasharray:none;stroke-opacity:1"
           id="path142" /></g><g
         id="g144"
         transform="matrix(5.938144,0,0,5.9381447,-375.92908,-92.047684)"><path
           d="m 106,204.42857 h 6.32"
           style="fill:none;stroke:#262626;stroke-width:0.673611;stroke-linecap:square;stroke-linejoin:round;stroke-miterlimit:10;stroke-dasharray:none;stroke-opacity:1"
           id="path146" /></g><g
         id="g148"
         transform="matrix(5.938144,0,0,5.9381447,-375.92908,-92.047684)"><path
           d="m 106,173.85715 h 6.32"
           style="fill:none;stroke:#262626;stroke-width:0.673611;stroke-linecap:square;stroke-linejoin:round;stroke-miterlimit:10;stroke-dasharray:none;stroke-opacity:1"
           id="path150" /></g><g
         id="g152"
         transform="matrix(5.938144,0,0,5.9381447,-375.92908,-92.047684)"><path
           d="m 106,143.28572 h 6.32"
           style="fill:none;stroke:#262626;stroke-width:0.673611;stroke-linecap:square;stroke-linejoin:round;stroke-miterlimit:10;stroke-dasharray:none;stroke-opacity:1"
           id="path154" /></g><g
         id="g156"
         transform="matrix(5.938144,0,0,5.9381447,-375.92908,-92.047684)"><path
           d="m 106,112.71429 h 6.32"
           style="fill:none;stroke:#262626;stroke-width:0.673611;stroke-linecap:square;stroke-linejoin:round;stroke-miterlimit:10;stroke-dasharray:none;stroke-opacity:1"
           id="path158" /></g><g
         id="g160"
         transform="matrix(5.938144,0,0,5.9381447,-375.92908,-92.047684)"><path
           d="m 106,82.14286 h 6.32"
           style="fill:none;stroke:#262626;stroke-width:0.673611;stroke-linecap:square;stroke-linejoin:round;stroke-miterlimit:10;stroke-dasharray:none;stroke-opacity:1"
           id="path162" /></g><g
         id="g164"
         transform="matrix(5.938144,0,0,5.9381447,-375.92908,-92.047684)"><path
           d="m 106,51.57143 h 6.32"
           style="fill:none;stroke:#262626;stroke-width:0.673611;stroke-linecap:square;stroke-linejoin:round;stroke-miterlimit:10;stroke-dasharray:none;stroke-opacity:1"
           id="path166" /></g><g
         id="g168"
         transform="matrix(5.938144,0,0,5.9381447,-375.92908,-92.047684)"><path
           d="m 106,21 h 6.32"
           style="fill:none;stroke:#262626;stroke-width:0.673611;stroke-linecap:square;stroke-linejoin:round;stroke-miterlimit:10;stroke-dasharray:none;stroke-opacity:1"
           id="path170" /></g><g
         id="g172"
         transform="matrix(5.938144,0,0,5.9381447,-375.92908,-92.047684)"><path
           d="m 738,235 h -6.32001"
           style="fill:none;stroke:#262626;stroke-width:0.673611;stroke-linecap:square;stroke-linejoin:round;stroke-miterlimit:10;stroke-dasharray:none;stroke-opacity:1"
           id="path174" /></g><g
         id="g176"
         transform="matrix(5.938144,0,0,5.9381447,-375.92908,-92.047684)"><path
           d="m 738,204.42857 h -6.32001"
           style="fill:none;stroke:#262626;stroke-width:0.673611;stroke-linecap:square;stroke-linejoin:round;stroke-miterlimit:10;stroke-dasharray:none;stroke-opacity:1"
           id="path178" /></g><g
         id="g180"
         transform="matrix(5.938144,0,0,5.9381447,-375.92908,-92.047684)"><path
           d="m 738,173.85715 h -6.32001"
           style="fill:none;stroke:#262626;stroke-width:0.673611;stroke-linecap:square;stroke-linejoin:round;stroke-miterlimit:10;stroke-dasharray:none;stroke-opacity:1"
           id="path182" /></g><g
         id="g184"
         transform="matrix(5.938144,0,0,5.9381447,-375.92908,-92.047684)"><path
           d="m 738,143.28572 h -6.32001"
           style="fill:none;stroke:#262626;stroke-width:0.673611;stroke-linecap:square;stroke-linejoin:round;stroke-miterlimit:10;stroke-dasharray:none;stroke-opacity:1"
           id="path186" /></g><g
         id="g188"
         transform="matrix(5.938144,0,0,5.9381447,-375.92908,-92.047684)"><path
           d="m 738,112.71429 h -6.32001"
           style="fill:none;stroke:#262626;stroke-width:0.673611;stroke-linecap:square;stroke-linejoin:round;stroke-miterlimit:10;stroke-dasharray:none;stroke-opacity:1"
           id="path190" /></g><g
         id="g192"
         transform="matrix(5.938144,0,0,5.9381447,-375.92908,-92.047684)"><path
           d="m 738,82.14286 h -6.32001"
           style="fill:none;stroke:#262626;stroke-width:0.673611;stroke-linecap:square;stroke-linejoin:round;stroke-miterlimit:10;stroke-dasharray:none;stroke-opacity:1"
           id="path194" /></g><g
         id="g196"
         transform="matrix(5.938144,0,0,5.9381447,-375.92908,-92.047684)"><path
           d="m 738,51.57143 h -6.32001"
           style="fill:none;stroke:#262626;stroke-width:0.673611;stroke-linecap:square;stroke-linejoin:round;stroke-miterlimit:10;stroke-dasharray:none;stroke-opacity:1"
           id="path198" /></g><g
         id="g200"
         transform="matrix(5.938144,0,0,5.9381447,-375.92908,-92.047684)"><path
           d="m 738,21 h -6.32001"
           style="fill:none;stroke:#262626;stroke-width:0.673611;stroke-linecap:square;stroke-linejoin:round;stroke-miterlimit:10;stroke-dasharray:none;stroke-opacity:1"
           id="path202" /></g><g
         id="g204"><g
           id="g206"
           transform="matrix(5.938144,0,0,5.9381447,221.51421,1303.4163)"><text
             transform="translate(-9,4.5)"
             style="font-variant:normal;font-weight:normal;font-size:13.472px;font-family:Helvetica;-inkscape-font-specification:Helvetica;writing-mode:lr-tb;fill:#262626;fill-opacity:1;fill-rule:nonzero;stroke:none"
             id="text210"><tspan
               x="0"
               y="0"
               id="tspan208">0</tspan></text></g></g><g
         id="g212"><g
           id="g214"
           transform="matrix(5.938144,0,0,5.9381447,221.51421,1121.8788)"><text
             transform="translate(-18,4.5)"
             style="font-variant:normal;font-weight:normal;font-size:13.472px;font-family:Helvetica;-inkscape-font-specification:Helvetica;writing-mode:lr-tb;fill:#262626;fill-opacity:1;fill-rule:nonzero;stroke:none"
             id="text218"><tspan
               x="0 7.4904318"
               y="0"
               sodipodi:role="line"
               id="tspan216">10</tspan></text></g></g><g
         id="g220"><g
           id="g222"
           transform="matrix(5.938144,0,0,5.9381447,221.51421,940.34122)"><text
             transform="translate(-18,4.5)"
             style="font-variant:normal;font-weight:normal;font-size:13.472px;font-family:Helvetica;-inkscape-font-specification:Helvetica;writing-mode:lr-tb;fill:#262626;fill-opacity:1;fill-rule:nonzero;stroke:none"
             id="text226"><tspan
               x="0 7.4904318"
               y="0"
               sodipodi:role="line"
               id="tspan224">20</tspan></text></g></g><g
         id="g228"><g
           id="g230"
           transform="matrix(5.938144,0,0,5.9381447,221.51421,758.80366)"><text
             transform="translate(-18,4.5)"
             style="font-variant:normal;font-weight:normal;font-size:13.472px;font-family:Helvetica;-inkscape-font-specification:Helvetica;writing-mode:lr-tb;fill:#262626;fill-opacity:1;fill-rule:nonzero;stroke:none"
             id="text234"><tspan
               x="0 7.4904318"
               y="0"
               sodipodi:role="line"
               id="tspan232">30</tspan></text></g></g><g
         id="g236"><g
           id="g238"
           transform="matrix(5.938144,0,0,5.9381447,221.51421,577.26606)"><text
             transform="translate(-18,4.5)"
             style="font-variant:normal;font-weight:normal;font-size:13.472px;font-family:Helvetica;-inkscape-font-specification:Helvetica;writing-mode:lr-tb;fill:#262626;fill-opacity:1;fill-rule:nonzero;stroke:none"
             id="text242"><tspan
               x="0 7.4904318"
               y="0"
               sodipodi:role="line"
               id="tspan240">40</tspan></text></g></g><g
         id="g244"><g
           id="g246"
           transform="matrix(5.938144,0,0,5.9381447,221.51421,395.72851)"><text
             transform="translate(-18,4.5)"
             style="font-variant:normal;font-weight:normal;font-size:13.472px;font-family:Helvetica;-inkscape-font-specification:Helvetica;writing-mode:lr-tb;fill:#262626;fill-opacity:1;fill-rule:nonzero;stroke:none"
             id="text250"><tspan
               x="0 7.4904318"
               y="0"
               sodipodi:role="line"
               id="tspan248">50</tspan></text></g></g><g
         id="g252"><g
           id="g254"
           transform="matrix(5.938144,0,0,5.9381447,221.51421,214.19093)"><text
             transform="translate(-18,4.5)"
             style="font-variant:normal;font-weight:normal;font-size:13.472px;font-family:Helvetica;-inkscape-font-specification:Helvetica;writing-mode:lr-tb;fill:#262626;fill-opacity:1;fill-rule:nonzero;stroke:none"
             id="text258"><tspan
               x="0 7.4904318"
               y="0"
               sodipodi:role="line"
               id="tspan256">60</tspan></text></g></g><g
         id="g260"><g
           id="g262"
           transform="matrix(5.938144,0,0,5.9381447,221.51421,32.653356)"><text
             transform="translate(-18,4.5)"
             style="font-variant:normal;font-weight:normal;font-size:13.472px;font-family:Helvetica;-inkscape-font-specification:Helvetica;writing-mode:lr-tb;fill:#262626;fill-opacity:1;fill-rule:nonzero;stroke:none"
             id="text266"><tspan
               x="0 7.4904318"
               y="0"
               sodipodi:role="line"
               id="tspan264">70</tspan></text></g></g><g
         id="g268"><g
           id="g270"
           transform="matrix(-2.6e-7,-5.9381447,5.938144,-2.6e-7,90.627592,668.03421)"><text
             transform="translate(-43.5,-4)"
             style="font-variant:normal;font-weight:normal;font-size:14.819px;font-family:Helvetica;-inkscape-font-specification:Helvetica;writing-mode:lr-tb;fill:#262626;fill-opacity:1;fill-rule:nonzero;stroke:none"
             id="text274"><tspan
               x="0 8.2393637 16.478727 19.768545 28.00791 36.247272 40.366955 44.486637 49.421364 56.830864 69.175095"
               y="0"
               sodipodi:role="line"
               id="tspan272">height (cm)</tspan></text></g></g><g
         id="g276"
         transform="matrix(5.938144,0,0,5.9381447,-375.92908,-92.047684)"><path
           d="m 160.6403,235.02551 0.9964,-4.74777 2.94063,-9.97502 2.94063,-7.76323 2.94063,-6.36436 2.94064,-5.39916 2.94063,-4.69276 2.94063,-4.15335 2.94063,-3.72796 2.94062,-3.38385 2.94063,-3.0998 2.94063,-2.86133 2.94063,-2.65833 2.94063,-2.4834 2.94062,-2.33111 2.94063,-2.19739 2.94063,-2.07899 2.94063,-1.97345 2.94063,-1.8788 2.94062,-1.79343 2.94063,-1.71603 2.94063,-1.64559 2.94063,-1.58116 2.94064,-1.52203 2.94061,-1.46759 2.94065,-1.41728 2.94061,-1.37069 2.94064,-1.32739 2.94062,-1.28706 2.94064,-1.24942 2.94061,-1.21419 2.94065,-1.18115 2.94061,-1.15015 2.94064,-1.12096 2.94063,-1.09343 2.94064,-1.06744 2.94062,-1.04289 2.94064,-1.01962 2.94064,-0.99758 2.94062,-0.97664 2.94064,-0.95672 2.94061,-0.93781 2.94064,-0.91975 2.94062,-0.90258 2.94064,-0.88613 2.94061,-0.87044 2.94065,-0.85547 2.94061,-0.8411 2.94064,-0.82734 2.94062,-0.81417 2.94064,-0.80152 2.94061,-0.78939 2.94065,-0.77773 2.94061,-0.76652 2.94064,-0.75573 2.94061,-0.74538 2.94065,-0.73538 2.94061,-0.72575 2.94064,-0.71648 2.94062,-0.70754 2.94064,-0.6989 2.94064,-0.69058 2.94062,-0.68253 2.94064,-0.67475 2.94061,-0.66726 2.94065,-0.65998 2.94061,-0.65294 2.94064,-0.64616 2.94061,-0.63959 2.94065,-0.63321 2.94061,-0.62705 2.94064,-0.62107 2.94062,-0.61529 2.94064,-0.60968 2.94061,-0.60423 2.94065,-0.59896 2.94061,-0.59385 2.94064,-0.58888 2.94061,-0.58408 2.94065,-0.5794 2.94061,-0.57487 2.94064,-0.57047 2.94062,-0.5662 2.94064,-0.56205 2.94064,-0.55801 2.94062,-0.55412 2.94064,-0.5503 2.94061,-0.54663 2.94065,-0.54304 2.94061,-0.53955 2.94064,-0.53617 2.94061,-0.5329 2.94065,-0.529696 2.94061,-0.526596 2.94064,-0.523598 2.94062,-0.52066 2.94064,-0.517823 2.94061,-0.515068 2.94065,-0.512382 2.94061,-0.509789 2.94064,-0.507263 2.94061,-0.504806 2.94065,-0.502426 2.94061,-0.500115 2.94061,-0.497879 2.94068,-0.495705 2.94061,-0.493583 2.94061,-0.491562 2.94068,-0.489571 2.94061,-0.487648 2.94061,-0.485794 2.94065,-0.484001 2.94064,-0.482254 2.94061,-0.480568 2.94065,-0.478935 2.94061,-0.477364 2.94064,-0.475853 2.94064,-0.474373 2.94062,-0.472961 2.94061,-0.471603 2.94067,-0.470284 2.94062,-0.469025 2.94061,-0.467796 2.94061,-0.466637 2.94068,-0.465515 2.94061,-0.464439 2.94061,-0.463432 2.94068,-0.462433 2.94061,-0.461495 2.94061,-0.460602 2.94061,-0.45977 2.94068,-0.458961 2.94061,-0.458191 2.94061,-0.457482 2.94062,-0.456802 2.94067,-0.456161 2.94061,-0.455574 2.94062,-0.455025 2.94061,-0.454514 2.94067,-0.454055 2.94062,-0.453606 2.94061,-0.453232 2.94061,-0.452873 2.94067,-0.452583 2.94062,-0.452302 2.94061,-0.452072 2.94061,-0.451881 2.94068,-0.451744 2.94061,-0.451622 2.94061,-0.451546 2.94068,-0.451515 2.94061,-0.451538 2.94061,-0.451569 2.94061,-0.45166 2.94068,-0.451775 2.94061,-0.451942 2.94061,-0.452148 2.94062,-0.452393 2.94067,-0.452667 2.94061,-0.453003 2.94062,-0.453346 2.94061,-0.453759 2.94067,-0.454208 2.94062,-0.454681 2.94061,-0.455201 2.94061,-0.45578 2.94068,-0.456375 2.94061,-0.457023 2.94061,-0.457726 2.94061,-0.458446 2.94068,-0.459217 2.94061,-0.460045 2.94061,-0.460907 2.94068,-0.461819 2.94061,-0.462765 2.94061,-0.463752 2.94062,-0.464806 2.94067,-0.465897 2.94061,-0.467022 2.94061,-0.468219 2.94062,-0.469445 2.94067,-0.470718 2.94061,-0.472057 2.94062,-0.473446 2.94061,-0.474865 2.94067,-0.476349 2.94062,-0.477902 2.94061,-0.479484 2.94061,-0.481133 2.94068,-0.482845 2.94061,-0.484592 2.94061,-0.486428 2.94061,-0.488289 2.94068,-0.490238 2.94061,-0.492244 2.94061,-0.494298 2.94068,-0.496444 L 738,50.325966"
           style="fill:none;stroke:#000000;stroke-width:2.02083;stroke-linecap:butt;stroke-linejoin:round;stroke-miterlimit:10;stroke-dasharray:none;stroke-opacity:1"
           id="path278" /></g><g
         id="g280"
         transform="matrix(5.938144,0,0,5.9381447,1295.9883,686.18861)"><path
           d="M 4.7631497,0 C 4.7631497,-2.630615 2.630615,-4.7631497 0,-4.7631497 -2.630615,-4.7631497 -4.7631497,-2.630615 -4.7631497,0 -4.7631497,2.630615 -2.630615,4.7631497 0,4.7631497 2.630615,4.7631497 4.7631497,2.630615 4.7631497,0 Z"
           style="fill:#000000;fill-opacity:1;fill-rule:nonzero;stroke:none"
           id="path282" /></g><g
         id="g284"
         transform="matrix(5.938144,0,0,5.9381447,1504.4831,649.88108)"><path
           d="M 4.7631497,0 C 4.7631497,-2.630615 2.630615,-4.7631497 0,-4.7631497 -2.630615,-4.7631497 -4.7631497,-2.630615 -4.7631497,0 -4.7631497,2.630615 -2.630615,4.7631497 0,4.7631497 2.630615,4.7631497 4.7631497,2.630615 4.7631497,0 Z"
           style="fill:#000000;fill-opacity:1;fill-rule:nonzero;stroke:none"
           id="path286" /></g><g
         id="g288"
         transform="matrix(5.938144,0,0,5.9381447,1573.9816,631.72731)"><path
           d="M 4.7631497,0 C 4.7631497,-2.630615 2.630615,-4.7631497 0,-4.7631497 -2.630615,-4.7631497 -4.7631497,-2.630615 -4.7631497,0 -4.7631497,2.630615 -2.630615,4.7631497 0,4.7631497 2.630615,4.7631497 4.7631497,2.630615 4.7631497,0 Z"
           style="fill:#000000;fill-opacity:1;fill-rule:nonzero;stroke:none"
           id="path290" /></g><g
         id="g292"
         transform="matrix(5.938144,0,0,5.9381447,1226.4902,722.49613)"><path
           d="M 4.7631497,0 C 4.7631497,-2.630615 2.630615,-4.7631497 0,-4.7631497 -2.630615,-4.7631497 -4.7631497,-2.630615 -4.7631497,0 -4.7631497,2.630615 -2.630615,4.7631497 0,4.7631497 2.630615,4.7631497 4.7631497,2.630615 4.7631497,0 Z"
           style="fill:#000000;fill-opacity:1;fill-rule:nonzero;stroke:none"
           id="path294" /></g><g
         id="g296"
         transform="matrix(5.938144,0,0,5.9381447,1365.4866,668.03484)"><path
           d="M 4.7631497,0 C 4.7631497,-2.630615 2.630615,-4.7631497 0,-4.7631497 -2.630615,-4.7631497 -4.7631497,-2.630615 -4.7631497,0 -4.7631497,2.630615 -2.630615,4.7631497 0,4.7631497 2.630615,4.7631497 4.7631497,2.630615 4.7631497,0 Z"
           style="fill:#000000;fill-opacity:1;fill-rule:nonzero;stroke:none"
           id="path298" /></g><g
         id="g300"
         transform="matrix(5.938144,0,0,5.9381447,1156.9917,740.6499)"><path
           d="M 4.7631497,0 C 4.7631497,-2.630615 2.630615,-4.7631497 0,-4.7631497 -2.630615,-4.7631497 -4.7631497,-2.630615 -4.7631497,0 -4.7631497,2.630615 -2.630615,4.7631497 0,4.7631497 2.630615,4.7631497 4.7631497,2.630615 4.7631497,0 Z"
           style="fill:#000000;fill-opacity:1;fill-rule:nonzero;stroke:none"
           id="path302" /></g><g
         id="g304"
         transform="matrix(5.938144,0,0,5.9381447,1017.9951,758.80366)"><path
           d="M 4.7631497,0 C 4.7631497,-2.630615 2.630615,-4.7631497 0,-4.7631497 -2.630615,-4.7631497 -4.7631497,-2.630615 -4.7631497,0 -4.7631497,2.630615 -2.630615,4.7631497 0,4.7631497 2.630615,4.7631497 4.7631497,2.630615 4.7631497,0 Z"
           style="fill:#000000;fill-opacity:1;fill-rule:nonzero;stroke:none"
           id="path306" /></g><g
         id="g308"
         transform="matrix(5.938144,0,0,5.9381447,948.49695,795.1111)"><path
           d="M 4.7631497,0 C 4.7631497,-2.630615 2.630615,-4.7631497 0,-4.7631497 -2.630615,-4.7631497 -4.7631497,-2.630615 -4.7631497,0 -4.7631497,2.630615 -2.630615,4.7631497 0,4.7631497 2.630615,4.7631497 4.7631497,2.630615 4.7631497,0 Z"
           style="fill:#000000;fill-opacity:1;fill-rule:nonzero;stroke:none"
           id="path310" /></g><g
         id="g312"
         transform="matrix(5.938144,0,0,5.9381447,1087.4935,740.6499)"><path
           d="M 4.7631497,0 C 4.7631497,-2.630615 2.630615,-4.7631497 0,-4.7631497 -2.630615,-4.7631497 -4.7631497,-2.630615 -4.7631497,0 -4.7631497,2.630615 -2.630615,4.7631497 0,4.7631497 2.630615,4.7631497 4.7631497,2.630615 4.7631497,0 Z"
           style="fill:#000000;fill-opacity:1;fill-rule:nonzero;stroke:none"
           id="path314" /></g><g
         id="g316"
         transform="matrix(5.938144,0,0,5.9381447,878.99867,867.72616)"><path
           d="M 4.7631497,0 C 4.7631497,-2.630615 2.630615,-4.7631497 0,-4.7631497 -2.630615,-4.7631497 -4.7631497,-2.630615 -4.7631497,0 -4.7631497,2.630615 -2.630615,4.7631497 0,4.7631497 2.630615,4.7631497 4.7631497,2.630615 4.7631497,0 Z"
           style="fill:#000000;fill-opacity:1;fill-rule:nonzero;stroke:none"
           id="path318" /></g><g
         id="g320"
         transform="matrix(5.938144,0,0,5.9381447,809.50038,904.03369)"><path
           d="M 4.7631497,0 C 4.7631497,-2.630615 2.630615,-4.7631497 0,-4.7631497 -2.630615,-4.7631497 -4.7631497,-2.630615 -4.7631497,0 -4.7631497,2.630615 -2.630615,4.7631497 0,4.7631497 2.630615,4.7631497 4.7631497,2.630615 4.7631497,0 Z"
           style="fill:#000000;fill-opacity:1;fill-rule:nonzero;stroke:none"
           id="path322" /></g><g
         id="g324"
         transform="matrix(5.938144,0,0,5.9381447,698.30316,1067.4175)"><path
           d="M 4.7631497,0 C 4.7631497,-2.630615 2.630615,-4.7631497 0,-4.7631497 -2.630615,-4.7631497 -4.7631497,-2.630615 -4.7631497,0 -4.7631497,2.630615 -2.630615,4.7631497 0,4.7631497 2.630615,4.7631497 4.7631497,2.630615 4.7631497,0 Z"
           style="fill:#000000;fill-opacity:1;fill-rule:nonzero;stroke:none"
           id="path326" /></g><g
         id="g328"
         transform="matrix(5.938144,0,0,5.9381447,740.00219,994.80242)"><path
           d="M 4.7631497,0 C 4.7631497,-2.630615 2.630615,-4.7631497 0,-4.7631497 -2.630615,-4.7631497 -4.7631497,-2.630615 -4.7631497,0 -4.7631497,2.630615 -2.630615,4.7631497 0,4.7631497 2.630615,4.7631497 4.7631497,2.630615 4.7631497,0 Z"
           style="fill:#000000;fill-opacity:1;fill-rule:nonzero;stroke:none"
           id="path330" /></g><g
         id="g332"
         transform="matrix(5.938144,0,0,5.9381447,656.60423,1103.725)"><path
           d="M 4.7631497,0 C 4.7631497,-2.630615 2.630615,-4.7631497 0,-4.7631497 -2.630615,-4.7631497 -4.7631497,-2.630615 -4.7631497,0 -4.7631497,2.630615 -2.630615,4.7631497 0,4.7631497 2.630615,4.7631497 4.7631497,2.630615 4.7631497,0 Z"
           style="fill:#000000;fill-opacity:1;fill-rule:nonzero;stroke:none"
           id="path334" /></g><g
         id="g336"
         transform="matrix(5.938144,0,0,5.9381447,628.80488,1176.3401)"><path
           d="M 4.7631497,0 C 4.7631497,-2.630615 2.630615,-4.7631497 0,-4.7631497 -2.630615,-4.7631497 -4.7631497,-2.630615 -4.7631497,0 -4.7631497,2.630615 -2.630615,4.7631497 0,4.7631497 2.630615,4.7631497 4.7631497,2.630615 4.7631497,0 Z"
           style="fill:#000000;fill-opacity:1;fill-rule:nonzero;stroke:none"
           id="path338" /></g><g
         id="g340"
         transform="matrix(5.938144,0,0,5.9381447,642.70455,1140.0325)"><path
           d="M 4.7631497,0 C 4.7631497,-2.630615 2.630615,-4.7631497 0,-4.7631497 -2.630615,-4.7631497 -4.7631497,-2.630615 -4.7631497,0 -4.7631497,2.630615 -2.630615,4.7631497 0,4.7631497 2.630615,4.7631497 4.7631497,2.630615 4.7631497,0 Z"
           style="fill:#000000;fill-opacity:1;fill-rule:nonzero;stroke:none"
           id="path342" /></g><g
         id="g344"
         transform="matrix(5.938144,0,0,5.9381447,670.5039,1085.5712)"><path
           d="M 4.7631497,0 C 4.7631497,-2.630615 2.630615,-4.7631497 0,-4.7631497 -2.630615,-4.7631497 -4.7631497,-2.630615 -4.7631497,0 -4.7631497,2.630615 -2.630615,4.7631497 0,4.7631497 2.630615,4.7631497 4.7631497,2.630615 4.7631497,0 Z"
           style="fill:#000000;fill-opacity:1;fill-rule:nonzero;stroke:none"
           id="path346" /></g><g
         id="g348"
         transform="matrix(5.938144,0,0,5.9381447,587.10594,1267.1088)"><path
           d="M 4.7631497,0 C 4.7631497,-2.630615 2.630615,-4.7631497 0,-4.7631497 -2.630615,-4.7631497 -4.7631497,-2.630615 -4.7631497,0 -4.7631497,2.630615 -2.630615,4.7631497 0,4.7631497 2.630615,4.7631497 4.7631497,2.630615 4.7631497,0 Z"
           style="fill:#000000;fill-opacity:1;fill-rule:nonzero;stroke:none"
           id="path350" /></g><g
         id="g352"
         transform="matrix(5.938144,0,0,5.9381447,601.00562,1248.955)"><path
           d="M 4.7631497,0 C 4.7631497,-2.630615 2.630615,-4.7631497 0,-4.7631497 -2.630615,-4.7631497 -4.7631497,-2.630615 -4.7631497,0 -4.7631497,2.630615 -2.630615,4.7631497 0,4.7631497 2.630615,4.7631497 4.7631497,2.630615 4.7631497,0 Z"
           style="fill:#000000;fill-opacity:1;fill-rule:nonzero;stroke:none"
           id="path354" /></g><g
         id="g356"
         transform="matrix(5.938144,0,0,5.9381447,1643.4797,613.57359)"><path
           d="M 4.7631497,0 C 4.7631497,-2.630615 2.630615,-4.7631497 0,-4.7631497 -2.630615,-4.7631497 -4.7631497,-2.630615 -4.7631497,0 -4.7631497,2.630615 -2.630615,4.7631497 0,4.7631497 2.630615,4.7631497 4.7631497,2.630615 4.7631497,0 Z"
           style="fill:#000000;fill-opacity:1;fill-rule:nonzero;stroke:none"
           id="path358" /></g><g
         id="g360"
         transform="matrix(5.938144,0,0,5.9381447,1782.4763,595.41983)"><path
           d="M 4.7631497,0 C 4.7631497,-2.630615 2.630615,-4.7631497 0,-4.7631497 -2.630615,-4.7631497 -4.7631497,-2.630615 -4.7631497,0 -4.7631497,2.630615 -2.630615,4.7631497 0,4.7631497 2.630615,4.7631497 4.7631497,2.630615 4.7631497,0 Z"
           style="fill:#000000;fill-opacity:1;fill-rule:nonzero;stroke:none"
           id="path362" /></g><g
         id="g364"
         transform="matrix(5.938144,0,0,5.9381447,1817.2255,586.34295)"><path
           d="M 4.7631497,0 C 4.7631497,-2.630615 2.630615,-4.7631497 0,-4.7631497 -2.630615,-4.7631497 -4.7631497,-2.630615 -4.7631497,0 -4.7631497,2.630615 -2.630615,4.7631497 0,4.7631497 2.630615,4.7631497 4.7631497,2.630615 4.7631497,0 Z"
           style="fill:#000000;fill-opacity:1;fill-rule:nonzero;stroke:none"
           id="path366" /></g><g
         id="g368"
         transform="matrix(5.938144,0,0,5.9381447,2199.466,540.95853)"><path
           d="M 4.7631497,0 C 4.7631497,-2.630615 2.630615,-4.7631497 0,-4.7631497 -2.630615,-4.7631497 -4.7631497,-2.630615 -4.7631497,0 -4.7631497,2.630615 -2.630615,4.7631497 0,4.7631497 2.630615,4.7631497 4.7631497,2.630615 4.7631497,0 Z"
           style="fill:#000000;fill-opacity:1;fill-rule:nonzero;stroke:none"
           id="path370" /></g><g
         id="g372"
         transform="matrix(5.938144,0,0,5.9381447,2032.6701,559.1123)"><path
           d="M 4.7631497,0 C 4.7631497,-2.630615 2.630615,-4.7631497 0,-4.7631497 -2.630615,-4.7631497 -4.7631497,-2.630615 -4.7631497,0 -4.7631497,2.630615 -2.630615,4.7631497 0,4.7631497 2.630615,4.7631497 4.7631497,2.630615 4.7631497,0 Z"
           style="fill:#000000;fill-opacity:1;fill-rule:nonzero;stroke:none"
           id="path374" /></g><g
         id="g376"
         transform="matrix(5.938144,0,0,5.9381447,2338.4626,513.72789)"><path
           d="M 4.7631497,0 C 4.7631497,-2.630615 2.630615,-4.7631497 0,-4.7631497 -2.630615,-4.7631497 -4.7631497,-2.630615 -4.7631497,0 -4.7631497,2.630615 -2.630615,4.7631497 0,4.7631497 2.630615,4.7631497 4.7631497,2.630615 4.7631497,0 Z"
           style="fill:#000000;fill-opacity:1;fill-rule:nonzero;stroke:none"
           id="path378" /></g><g
         id="g380"
         transform="matrix(5.938144,0,0,5.9381447,2407.9607,404.80535)"><path
           d="M 4.7631497,0 C 4.7631497,-2.630615 2.630615,-4.7631497 0,-4.7631497 -2.630615,-4.7631497 -4.7631497,-2.630615 -4.7631497,0 -4.7631497,2.630615 -2.630615,4.7631497 0,4.7631497 2.630615,4.7631497 4.7631497,2.630615 4.7631497,0 Z"
           style="fill:#000000;fill-opacity:1;fill-rule:nonzero;stroke:none"
           id="path382" /></g><g
         id="g384"
         transform="matrix(5.938144,0,0,5.9381447,3102.9437,323.11345)"><path
           d="M 4.7631497,0 C 4.7631497,-2.630615 2.630615,-4.7631497 0,-4.7631497 -2.630615,-4.7631497 -4.7631497,-2.630615 -4.7631497,0 -4.7631497,2.630615 -2.630615,4.7631497 0,4.7631497 2.630615,4.7631497 4.7631497,2.630615 4.7631497,0 Z"
           style="fill:#000000;fill-opacity:1;fill-rule:nonzero;stroke:none"
           id="path386" /></g><g
         id="g388"
         transform="matrix(5.938144,0,0,5.9381447,2268.9643,468.34352)"><path
           d="M 4.7631497,0 C 4.7631497,-2.630615 2.630615,-4.7631497 0,-4.7631497 -2.630615,-4.7631497 -4.7631497,-2.630615 -4.7631497,0 -4.7631497,2.630615 -2.630615,4.7631497 0,4.7631497 2.630615,4.7631497 4.7631497,2.630615 4.7631497,0 Z"
           style="fill:#000000;fill-opacity:1;fill-rule:nonzero;stroke:none"
           id="path390" /></g><g
         id="g392"
         transform="matrix(5.938144,0,0,5.9381447,2338.4626,504.65105)"><path
           d="M 4.7631497,0 C 4.7631497,-2.630615 2.630615,-4.7631497 0,-4.7631497 -2.630615,-4.7631497 -4.7631497,-2.630615 -4.7631497,0 -4.7631497,2.630615 -2.630615,4.7631497 0,4.7631497 2.630615,4.7631497 4.7631497,2.630615 4.7631497,0 Z"
           style="fill:#000000;fill-opacity:1;fill-rule:nonzero;stroke:none"
           id="path394" /></g><g
         id="g396"
         transform="matrix(5.938144,0,0,5.9381447,3589.4315,286.80595)"><path
           d="M 4.7631497,0 C 4.7631497,-2.630615 2.630615,-4.7631497 0,-4.7631497 -2.630615,-4.7631497 -4.7631497,-2.630615 -4.7631497,0 -4.7631497,2.630615 -2.630615,4.7631497 0,4.7631497 2.630615,4.7631497 4.7631497,2.630615 4.7631497,0 Z"
           style="fill:#000000;fill-opacity:1;fill-rule:nonzero;stroke:none"
           id="path398" /></g><g
         id="g400"
         transform="matrix(5.938144,0,0,5.9381447,2824.9502,359.42098)"><path
           d="M 4.7631497,0 C 4.7631497,-2.630615 2.630615,-4.7631497 0,-4.7631497 -2.630615,-4.7631497 -4.7631497,-2.630615 -4.7631497,0 -4.7631497,2.630615 -2.630615,4.7631497 0,4.7631497 2.630615,4.7631497 4.7631497,2.630615 4.7631497,0 Z"
           style="fill:#000000;fill-opacity:1;fill-rule:nonzero;stroke:none"
           id="path402" /></g><g
         id="g404"
         transform="matrix(5.938144,0,0,5.9381447,-375.92908,-92.047684)"><path
           d="m 727,225 v -41 h -98 v 41 z"
           style="fill:#ffffff;fill-opacity:1;fill-rule:nonzero;stroke:none"
           id="path406" /></g><g
         id="g408"><g
           id="g410"
           transform="matrix(5.938144,0,0,5.9381447,3639.5386,1066.697)"><text
             transform="translate(0,5)"
             style="font-variant:normal;font-weight:normal;font-size:14.819px;font-family:Helvetica;-inkscape-font-specification:Helvetica;writing-mode:lr-tb;fill:#000000;fill-opacity:1;fill-rule:nonzero;stroke:none"
             id="text414"><tspan
               x="0 12.344227 20.583591 28.822954 37.062321"
               y="0"
               sodipodi:role="line"
               id="tspan412">model</tspan></text></g></g><g
         id="g416"
         transform="matrix(5.938144,0,0,5.9381447,-375.92908,-92.047684)"><path
           d="m 632.98309,195.1358 h 40.24555"
           style="fill:none;stroke:#000000;stroke-width:2.02083;stroke-linecap:butt;stroke-linejoin:round;stroke-miterlimit:10;stroke-dasharray:none;stroke-opacity:1"
           id="path418" /></g><g
         id="g420"><g
           id="g422"
           transform="matrix(5.938144,0,0,5.9381447,3639.5386,1177.9089)"><text
             transform="translate(0,5)"
             style="font-variant:normal;font-weight:normal;font-size:14.819px;font-family:Helvetica;-inkscape-font-specification:Helvetica;writing-mode:lr-tb;fill:#000000;fill-opacity:1;fill-rule:nonzero;stroke:none"
             id="text426"><tspan
               x="0 8.2393637 16.478727 20.59841"
               y="0"
               sodipodi:role="line"
               id="tspan424">data</tspan></text></g></g><g
         id="g428"
         transform="matrix(5.938144,0,0,5.9381447,3502.3075,1177.9089)"><path
           d="M 4.0416665,0 C 4.0416665,-2.2321508 2.2321508,-4.0416665 0,-4.0416665 -2.2321508,-4.0416665 -4.0416665,-2.2321508 -4.0416665,0 -4.0416665,2.2321508 -2.2321508,4.0416665 0,4.0416665 2.2321508,4.0416665 4.0416665,2.2321508 4.0416665,0 Z"
           style="fill:#000000;fill-opacity:1;fill-rule:nonzero;stroke:none"
           id="path430" /></g><g
         id="g432"
         transform="matrix(5.938144,0,0,5.9381447,-375.92908,-92.047684)"><path
           d="m 629,225 v -41 h 98 v 41 z"
           style="fill:none;stroke:#262626;stroke-width:0.673611;stroke-linecap:butt;stroke-linejoin:miter;stroke-miterlimit:10;stroke-dasharray:none;stroke-opacity:1"
           id="path434" /></g></g><rect
       style="opacity:0.99;fill:#ffffff;fill-opacity:0;stroke:#000001;stroke-width:1.08825;stroke-miterlimit:4;stroke-dasharray:3.26475, 1.08825;stroke-dashoffset:0;stroke-opacity:1"
       id="rect1306"
       width="34.431553"
       height="48.333874"
       x="65.061226"
       y="-80.203346"
       transform="scale(1,-1)"
       rx="0.68840551"
       ry="0.35125944" /><path
       style="fill:none;stroke:#000000;stroke-width:0.75px;stroke-linecap:butt;stroke-linejoin:miter;stroke-opacity:1"
       d="M 74.906904,81.051327 65.694372,122.44834"
       id="path1851" /><text
       xml:space="preserve"
       transform="matrix(0.75000002,0,0,-0.75000002,-28.531655,162.09971)"
       id="text4265"
       style="font-style:normal;font-variant:normal;font-weight:normal;font-stretch:normal;font-size:12px;line-height:1.25;font-family:'TeX Gyre Adventor';-inkscape-font-specification:'TeX Gyre Adventor, Normal';font-variant-ligatures:normal;font-variant-caps:normal;font-variant-numeric:normal;font-variant-east-asian:normal;white-space:pre;shape-inside:url(#rect4267);fill:#000000;fill-opacity:1;stroke:none"><tspan
         x="96.738281"
         y="46.681492"
         id="tspan9661">Insensitive</tspan></text><path
       style="fill:none;stroke:#ff0000;stroke-width:1.35;stroke-linecap:butt;stroke-linejoin:miter;stroke-miterlimit:4;stroke-dasharray:none;stroke-opacity:1"
       d="m 454.09621,160.44721 c 2.06722,0.77654 4.13401,1.55293 5.94982,2.79668 1.81581,1.24375 3.381,2.95497 1.45276,4.44673 -1.92824,1.49176 -7.35065,2.76414 -41.45972,4.06058 -34.10906,1.29644 -96.90206,2.61667 -159.69708,3.93694"
       id="path6384"
       inkscape:path-effect="#path-effect6386"
       inkscape:original-d="m 454.09621,160.44721 c 2.06756,0.77564 4.13435,1.55202 6.2004,2.32916 1.56601,1.71055 3.1312,3.42178 4.69568,5.13379 -5.42187,1.27168 -10.84428,2.54406 -16.26754,3.81721 -62.79476,1.31953 -125.58776,2.63976 -188.38276,3.96077" /><path
       style="fill:none;stroke:#000000;stroke-width:0.75px;stroke-linecap:butt;stroke-linejoin:miter;stroke-opacity:1"
       d="m 329.1347,171.51929 c 4.28973,-19.45924 8.57927,-38.91761 12.86862,-58.37512"
       id="path6519"
       inkscape:path-effect="#path-effect6521"
       inkscape:original-d="m 329.1347,171.51929 c 4.29029,-19.45912 8.57983,-38.91749 12.86862,-58.37512" /><text
       xml:space="preserve"
       transform="matrix(0.75000002,0,0,-0.75000002,19.22305,194.79761)"
       id="text8011"
       style="font-style:normal;font-variant:normal;font-weight:normal;font-stretch:normal;font-size:12px;line-height:1.25;font-family:'TeX Gyre Adventor';-inkscape-font-specification:'TeX Gyre Adventor, Normal';font-variant-ligatures:normal;font-variant-caps:normal;font-variant-numeric:normal;font-variant-east-asian:normal;white-space:pre;shape-inside:url(#rect8013);fill:#000000;fill-opacity:1;stroke:none"><tspan
         x="352.12109"
         y="125.3143"
         id="tspan9663">Strong voltage above 58 cm</tspan></text></g></svg>
